<svg width="157" height="46" viewBox="0 0 157 46" fill="none" xmlns="http://www.w3.org/2000/svg">
<path fill-rule="evenodd" clip-rule="evenodd" d="M18.9796 1C9.04974 1 1 9.04973 1 18.9796C1 28.9094 9.04973 36.9592 18.9796 36.9592H73.5954L78.1432 44.5159C78.5319 45.1617 79.4681 45.1617 79.8568 44.5159L84.4046 36.9592H138.02C147.95 36.9592 156 28.9094 156 18.9796C156 9.04973 147.95 1 138.02 1H18.9796Z" fill="white"/>
<path d="M73.5954 36.9592L74.0238 36.7014L73.8781 36.4592H73.5954V36.9592ZM78.1432 44.5159L78.5716 44.2581V44.2581L78.1432 44.5159ZM79.8568 44.5159L79.4284 44.2581V44.2581L79.8568 44.5159ZM84.4046 36.9592V36.4592H84.1219L83.9762 36.7014L84.4046 36.9592ZM1.5 18.9796C1.5 9.32588 9.32588 1.5 18.9796 1.5V0.5C8.77359 0.5 0.5 8.77359 0.5 18.9796H1.5ZM18.9796 36.4592C9.32587 36.4592 1.5 28.6333 1.5 18.9796H0.5C0.5 29.1856 8.77359 37.4592 18.9796 37.4592V36.4592ZM73.5954 36.4592H18.9796V37.4592H73.5954V36.4592ZM78.5716 44.2581L74.0238 36.7014L73.167 37.217L77.7148 44.7737L78.5716 44.2581ZM79.4284 44.2581C79.2341 44.581 78.7659 44.581 78.5716 44.2581L77.7148 44.7737C78.2978 45.7425 79.7022 45.7424 80.2852 44.7737L79.4284 44.2581ZM83.9762 36.7014L79.4284 44.2581L80.2852 44.7737L84.833 37.217L83.9762 36.7014ZM138.02 36.4592H84.4046V37.4592H138.02V36.4592ZM155.5 18.9796C155.5 28.6333 147.674 36.4592 138.02 36.4592V37.4592C148.226 37.4592 156.5 29.1856 156.5 18.9796H155.5ZM138.02 1.5C147.674 1.5 155.5 9.32588 155.5 18.9796H156.5C156.5 8.77359 148.226 0.5 138.02 0.5V1.5ZM18.9796 1.5H138.02V0.5H18.9796V1.5Z" fill="#9D9D9E"/>
<path d="M25.2644 24.127C23.2458 24.127 21.7985 23.0161 21.7604 21.4102H23.6901C23.7219 22.0957 24.3884 22.5464 25.2771 22.5527C26.1911 22.5464 26.8449 22.0386 26.8386 21.2959C26.8449 20.5469 26.1784 20.02 25.0993 20.0137H24.2487V18.6045H25.0993C26.007 18.6045 26.6418 18.1094 26.6354 17.3857C26.6418 16.6812 26.1022 16.1987 25.2897 16.2051C24.4772 16.1987 23.8107 16.6558 23.779 17.3604H21.9509C21.9826 15.7798 23.4045 14.6816 25.2897 14.6816C27.2067 14.6816 28.4826 15.8179 28.4763 17.2715C28.4826 18.2998 27.7653 19.0298 26.737 19.2139V19.29C28.0891 19.4551 28.8317 20.2739 28.819 21.4229C28.8317 22.9971 27.34 24.127 25.2644 24.127ZM40.0591 22.5273V23.8477H29.4839V22.5273H33.9526V20.2676H35.5649V22.5273H40.0591ZM29.8394 19.4043C32.4736 19.0869 33.7812 17.7793 33.9272 16.4971H30.3979V15.2021H33.9526V13.7549H35.5649V15.2021H39.1323V16.4971H35.603C35.7363 17.7793 37.0503 19.0869 39.6782 19.4043L39.0942 20.6611C37.0249 20.3945 35.5332 19.5376 34.7524 18.3442C33.9844 19.5376 32.499 20.3945 30.436 20.6611L29.8394 19.4043Z" fill="#146EFF"/>
<path d="M46.2591 14.707V20.0137H40.9397V14.707H46.2591ZM42.1204 19.0615H45.0784V15.6846H42.1204V19.0615ZM42.222 24.8379V21.2324H43.428V23.8604H49.9153V24.8379H42.222ZM48.2269 22.0322V13.6914H49.4329V17.0938H51.0833V18.1094H49.4329V22.0322H48.2269ZM61.2188 13.7041V25.0791H60.0636V13.7041H61.2188ZM51.5577 18.6172C51.5577 16.1543 52.5226 14.6118 54.0079 14.6182C55.3917 14.6118 56.3248 15.9258 56.4645 18.0586H57.753V13.9199H58.9083V24.5205H57.753V19.0361H56.4708C56.3629 21.2578 55.4171 22.6353 54.0079 22.6289C52.5226 22.6353 51.5577 21.0864 51.5577 18.6172ZM52.6749 18.6172C52.6749 20.4263 53.1891 21.4927 54.0079 21.4863C54.8458 21.4927 55.3663 20.4263 55.3663 18.6172C55.3663 16.8018 54.8458 15.7417 54.0079 15.748C53.1891 15.7417 52.6749 16.8018 52.6749 18.6172ZM74.4567 13.7041V18.0713H75.8786V19.0869H74.4567V25.0791H73.2634V13.7041H74.4567ZM65.4304 22.3623V14.7451H66.4333V17.5889H67.6394V14.7451H68.6423V22.3623H65.4304ZM66.4333 21.3594H67.6394V18.5537H66.4333V21.3594ZM69.2009 22.3623V14.7451H70.2038V17.5889H71.3845V14.7451H72.3874V22.3623H69.2009ZM70.2038 21.3594H71.3845V18.5537H70.2038V21.3594ZM86.5728 19.9502V20.9277H76.1626V19.9502H86.5728ZM77.4702 14.999V14.0469H85.2651V16.9668H78.689V18.084H85.4937V19.0107H77.4956V16.0908H84.0591V14.999H77.4702ZM77.521 24.8379V21.7402H78.7271V23.8604H85.5063V24.8379H77.521ZM99.3917 13.7041V25.0791H98.1856V13.7041H99.3917ZM90.0479 21.9814C90.9874 21.9751 92.0538 21.9688 93.171 21.9434V20.8008C91.8443 20.623 90.981 19.8423 90.9874 18.7314C90.981 17.4492 92.0982 16.605 93.7423 16.5986C95.4054 16.605 96.5416 17.4492 96.5479 18.7314C96.5416 19.8296 95.6847 20.604 94.3643 20.7944V21.8989C95.4181 21.8481 96.4845 21.772 97.4874 21.6387L97.5763 22.54C95.0499 22.959 92.295 22.9907 90.213 22.9844L90.0479 21.9814ZM90.2892 16.0273V15.0625H93.171V13.7295H94.377V15.0625H97.2335V16.0273H90.2892ZM92.13 18.7314C92.1173 19.4551 92.7901 19.9058 93.7423 19.8994C94.7262 19.9058 95.3927 19.4551 95.3927 18.7314C95.3927 18.0015 94.7262 17.5381 93.7423 17.5381C92.7901 17.5381 92.1173 18.0015 92.13 18.7314ZM110.378 13.7168V22.3369H109.172V21.2451H106.887V20.3945H109.172V13.7168H110.378ZM100.869 18.9092C102.97 18.8901 105.808 18.8711 108.232 18.5664L108.309 19.4297C107.337 19.5947 106.315 19.6963 105.312 19.7661V21.9814H104.106V19.8296C103.002 19.874 101.942 19.874 101.021 19.874L100.869 18.9092ZM101.758 16.1543C101.751 14.9482 102.9 14.1484 104.589 14.1484C106.252 14.1484 107.407 14.9482 107.407 16.1543C107.407 17.3667 106.252 18.1348 104.589 18.1348C102.907 18.1348 101.751 17.3667 101.758 16.1543ZM102.443 24.8379V21.499H103.637V23.8604H110.657V24.8379H102.443ZM102.9 16.1543C102.894 16.8271 103.579 17.2461 104.589 17.2461C105.56 17.2461 106.258 16.8271 106.265 16.1543C106.258 15.4751 105.56 15.0371 104.589 15.0498C103.579 15.0371 102.894 15.4751 102.9 16.1543ZM120.717 13.7041V18.2363H122.481V19.2393H120.717V25.0664H119.51V13.7041H120.717ZM111.868 22.0322C114.718 20.6104 116.267 18.5537 116.514 15.9004H112.439V14.8975H117.746C117.733 18.1855 116.286 21.1245 112.541 22.9717L111.868 22.0322ZM132.223 13.7041V19.8105H131.017V13.7041H132.223ZM123.019 16.8652C123.025 15.3037 124.308 14.2183 126.053 14.2246C127.792 14.2183 129.075 15.3037 129.075 16.8652C129.075 18.4204 127.792 19.5059 126.053 19.4932C124.308 19.5059 123.025 18.4204 123.019 16.8652ZM124.2 16.8652C124.193 17.8491 124.974 18.5029 126.053 18.5029C127.12 18.5029 127.894 17.8491 127.894 16.8652C127.894 15.894 127.12 15.2339 126.053 15.2402C124.974 15.2339 124.193 15.894 124.2 16.8652ZM124.784 24.9395V20.3564H125.964V21.6387H131.03V20.3564H132.223V24.9395H124.784ZM125.964 23.9492H131.03V22.5908H125.964V23.9492ZM135.821 14.8086L135.706 21.3467H134.45L134.335 14.8086H135.821ZM134.183 23.1875C134.177 22.6924 134.589 22.2861 135.084 22.2861C135.573 22.2861 135.979 22.6924 135.986 23.1875C135.979 23.6826 135.573 24.0825 135.084 24.0889C134.589 24.0825 134.177 23.6826 134.183 23.1875Z" fill="#232329"/>
</svg>
