<svg width="132" height="36" viewBox="0 0 132 36" fill="none" xmlns="http://www.w3.org/2000/svg">
<rect width="132" height="30" rx="15" fill="#146EFF"/>
<path d="M66 36L62 30L70 30L66 36Z" fill="#146EFF"/>
<path d="M17.9509 11.1475C17.9401 14.166 17.2097 16.6743 13.5573 18.5059L12.8054 17.4746C14.4382 16.6636 15.4104 15.7559 15.9636 14.6709L13.0739 14.9395L12.9021 13.7686L16.3771 13.5591C16.4792 13.1455 16.549 12.7051 16.5812 12.2432H13.4177V11.1475H17.9509ZM19.1862 19.9668V10.2129H20.5612V13.9619H21.947V15.0898H20.5612V19.9668H19.1862ZM26.0083 11.2979V12.3721H23.6558V13.9297H25.6216V14.9717H23.6558V16.728C24.7031 16.7119 25.4712 16.6582 26.3843 16.5078L26.5024 17.6143C25.3799 17.8184 24.4453 17.8291 23.0112 17.8291H22.356V11.2979H26.0083ZM26.0835 14.875V13.7793H27.1792V10.3848H28.4575V19.5479H27.1792V14.875H26.0835ZM29.2095 19.9883V10.2129H30.5308V19.9883H29.2095ZM39.3187 11.0615V11.9854C39.3133 13.21 39.3133 14.585 38.9212 16.6582L37.5462 16.5186C37.9222 14.6709 37.9383 13.2959 37.9437 12.1465H32.1858V11.0615H39.3187ZM31.262 18.7959V17.6787H34.4524V14.3164H35.8167V17.6787H40.178V18.7959H31.262ZM48.6651 10.2129V20.0098H47.3009V10.2129H48.6651ZM40.9845 12.1357V11.0293H45.6358V14.7998H42.4132V16.5938C43.9063 16.583 45.1686 16.5078 46.6026 16.2715L46.7208 17.3779C45.1148 17.6626 43.6593 17.7217 41.8761 17.7217H40.9952V13.7148H44.2394V12.1357H40.9845ZM58.6132 14.5957V15.6162H49.6649V14.5957H58.6132ZM50.6854 17.0449V16.0996H57.539V18.4092H52.0604V18.9678H57.829V19.9023H50.6962V17.5391H56.1854V17.0449H50.6854ZM50.7606 11.3193V10.3848H57.5282V12.6836H52.1464V13.21H57.7001V14.1338H50.7821V11.8135H56.1532V11.3193H50.7606ZM66.1021 11.0186V15.7129H61.4077V11.0186H66.1021ZM62.5356 19.8164V16.6475H63.8999V18.7207H69.228V19.8164H62.5356ZM62.7612 14.6387H64.7485V12.1143H62.7612V14.6387ZM67.4985 17.3457V10.2129H68.8735V13.0273H70.1948V14.1553H68.8735V17.3457H67.4985ZM79.262 14.0264V15.1006H70.3245V14.0264H79.262ZM71.3558 16.7119V15.6807H78.1556V18.2373H72.7093V18.8389H78.4134V19.9023H71.3665V17.2598H76.8021V16.7119H71.3558ZM71.4417 13.4893V10.4062H78.1233V11.502H72.806V12.415H78.1985V13.4893H71.4417ZM82.2276 10.9004C83.5489 10.9004 84.5372 11.9854 84.7306 13.7471H86.4278V10.2129H87.7813V20.0098H86.4278V14.8428H84.7467C84.6017 16.7227 83.5919 17.8721 82.2276 17.8721C80.7452 17.8721 79.6817 16.5293 79.6925 14.3809C79.6817 12.2485 80.7452 10.9004 82.2276 10.9004ZM81.003 14.3809C80.9977 15.8364 81.4972 16.6313 82.2276 16.626C82.9635 16.6313 83.4522 15.8364 83.4522 14.3809C83.4522 12.9307 82.9635 12.1357 82.2276 12.1357C81.4972 12.1357 80.9977 12.9307 81.003 14.3809ZM97.6864 17.7324V18.8496H88.7382V17.7324H92.5087V15.9277H89.6835V10.8359H91.0585V12.3506H95.3232V10.8359H96.6874V15.9277H93.873V17.7324H97.6864ZM91.0585 14.832H95.3232V13.4463H91.0585V14.832ZM101.082 12.6729C101.076 14.2573 101.517 15.8901 102.854 16.7441L102.113 17.8076C101.264 17.2974 100.733 16.4487 100.421 15.4497C100.072 16.5562 99.4865 17.4854 98.6003 18.0225L97.7624 17.0127C99.2126 16.1157 99.7497 14.3916 99.7497 12.7373V11.0508H101.082V12.6729ZM101.823 14.6279V13.5107H103.091V10.3525H104.369V19.5371H103.091V14.6279H101.823ZM105.11 19.9883V10.2129H106.421V19.9883H105.11ZM116.1 17.7217V18.8496H107.152V17.7217H109.15V15.3262C108.393 14.8696 107.936 14.1768 107.936 13.3174C107.936 11.7329 109.483 10.6909 111.61 10.6855C113.726 10.6909 115.289 11.7329 115.294 13.3174C115.289 14.1606 114.849 14.8428 114.113 15.2993V17.7217H116.1ZM109.29 13.3174C109.29 14.2734 110.208 14.8643 111.61 14.8643C112.99 14.8643 113.936 14.2734 113.941 13.3174C113.936 12.3345 112.99 11.7651 111.61 11.7705C110.208 11.7651 109.29 12.3345 109.29 13.3174ZM110.503 17.7217H112.727V15.8203C112.378 15.8901 112.002 15.9277 111.61 15.9277C111.218 15.9277 110.847 15.8901 110.503 15.8257V17.7217ZM118.582 11.2227L118.443 16.6689H117.068L116.928 11.2227H118.582ZM116.864 18.1943C116.853 17.7002 117.261 17.2974 117.766 17.3027C118.244 17.2974 118.658 17.7002 118.658 18.1943C118.658 18.6938 118.244 19.0967 117.766 19.0967C117.261 19.0967 116.853 18.6938 116.864 18.1943Z" fill="white"/>
</svg>
