<svg width="20" height="20" viewBox="0 0 20 20" fill="none" xmlns="http://www.w3.org/2000/svg">
<mask id="mask0_1022_28045" style="mask-type:alpha" maskUnits="userSpaceOnUse" x="0" y="0" width="20" height="20">
<rect width="20" height="20" fill="#D9D9D9"/>
</mask>
<g mask="url(#mask0_1022_28045)">
<path d="M4.33886 16.4918C4.08127 16.5434 3.86554 16.479 3.69167 16.2987C3.5178 16.1183 3.45662 15.8994 3.50814 15.6418L4.14567 12.5894L7.39125 15.8543L4.33886 16.4918ZM8.53107 15.0236L4.97638 11.4689L12.5301 3.91524C12.8006 3.64477 13.1258 3.50954 13.5057 3.50954C13.8856 3.50954 14.2108 3.64477 14.4813 3.91524L16.0848 5.49939C16.3552 5.76985 16.4905 6.09827 16.4905 6.48465C16.4905 6.87103 16.3552 7.19945 16.0848 7.46992L8.53107 15.0236Z" fill="#C2C3C4"/>
</g>
</svg>
