<svg width="32" height="32" viewBox="0 0 32 32" fill="none" xmlns="http://www.w3.org/2000/svg">
<mask id="mask0_1045_26555" style="mask-type:alpha" maskUnits="userSpaceOnUse" x="0" y="0" width="32" height="32">
<rect width="32" height="32" fill="#D9D9D9"/>
</mask>
<g mask="url(#mask0_1045_26555)">
<path d="M14.785 23.5246L13.2325 22.0989C11.6425 20.6354 10.2062 19.1833 8.92375 17.7425C7.64125 16.3016 7 14.7137 7 12.9787C7 11.5605 7.4725 10.3761 8.4175 9.42562C9.3625 8.47513 10.54 7.99988 11.95 7.99988C12.745 7.99988 13.495 8.16961 14.2 8.50907C14.905 8.84853 15.505 9.31247 16 9.90087C16.495 9.31247 17.095 8.84853 17.8 8.50907C18.505 8.16961 19.255 7.99988 20.05 7.99988C21.46 7.99988 22.6375 8.47513 23.5825 9.42562C24.5275 10.3761 25 11.5605 25 12.9787C25 14.7137 24.3625 16.3054 23.0875 17.7538C21.8125 19.2021 20.365 20.6581 18.745 22.1215L17.215 23.5246C16.87 23.8415 16.465 23.9999 16 23.9999C15.535 23.9999 15.13 23.8415 14.785 23.5246Z" fill="#FF004D"/>
</g>
</svg>
