<svg width="32" height="32" viewBox="0 0 32 32" fill="none" xmlns="http://www.w3.org/2000/svg">
<mask id="mask0_1045_26539" style="mask-type:alpha" maskUnits="userSpaceOnUse" x="0" y="0" width="32" height="32">
<rect width="32" height="32" fill="#D9D9D9"/>
</mask>
<g mask="url(#mask0_1045_26539)">
<path d="M14.785 23.5246L13.2325 22.0989C11.6425 20.6354 10.2062 19.1833 8.92375 17.7425C7.64125 16.3016 7 14.7137 7 12.9787C7 11.5605 7.4725 10.3761 8.4175 9.42562C9.3625 8.47513 10.54 7.99988 11.95 7.99988C12.745 7.99988 13.495 8.16961 14.2 8.50907C14.905 8.84853 15.505 9.31247 16 9.90087C16.495 9.31247 17.095 8.84853 17.8 8.50907C18.505 8.16961 19.255 7.99988 20.05 7.99988C21.46 7.99988 22.6375 8.47513 23.5825 9.42562C24.5275 10.3761 25 11.5605 25 12.9787C25 14.7137 24.3625 16.3054 23.0875 17.7538C21.8125 19.2021 20.365 20.6581 18.745 22.1215L17.215 23.5246C16.87 23.8415 16.465 23.9999 16 23.9999C15.535 23.9999 15.13 23.8415 14.785 23.5246Z" fill="black" fill-opacity="0.1"/>
<path d="M15.6174 10.2227L16 10.6776L16.3826 10.2227C16.8313 9.68942 17.3745 9.26891 18.0169 8.95957C18.6531 8.65322 19.3289 8.49988 20.05 8.49988C21.3346 8.49988 22.3821 8.92737 23.2279 9.77815C24.0739 10.6291 24.5 11.6841 24.5 12.9787C24.5 14.5782 23.9165 16.0553 22.7122 17.4234C21.4513 18.8557 20.0175 20.2982 18.4098 21.7505L18.4098 21.7505L18.4071 21.753L16.8771 23.1561L16.8768 23.1564C16.6233 23.3892 16.3387 23.4999 16 23.4999C15.6613 23.4999 15.3767 23.3892 15.1232 23.1564L13.5711 21.731C13.571 21.7309 13.5709 21.7308 13.5708 21.7307C13.5707 21.7307 13.5707 21.7306 13.5707 21.7306C11.9916 20.2772 10.5674 18.837 9.29723 17.41C8.08642 16.0497 7.5 14.5771 7.5 12.9787C7.5 11.6841 7.92606 10.6291 8.77208 9.77815C9.61793 8.92737 10.6654 8.49988 11.95 8.49988C12.6711 8.49988 13.3469 8.65322 13.9831 8.95957C14.6255 9.26891 15.1687 9.68942 15.6174 10.2227Z" stroke="white" stroke-opacity="0.5"/>
</g>
</svg>
