<svg width="24" height="24" viewBox="0 0 24 24" fill="none" xmlns="http://www.w3.org/2000/svg">
<path d="M19.53 8.57865L12.53 4.15161C12.21 3.94946 11.79 3.94946 11.47 4.15161L4.47 8.57865C4.18 8.76058 4 9.08402 4 9.43778V18.9893C4 19.5452 4.45 20 5 20H10C10.55 20 11 19.5452 11 18.9893V14.9356C11 14.3797 11.45 13.9248 12 13.9248C12.55 13.9248 13 14.3797 13 14.9356V18.9893C13 19.5452 13.45 20 14 20H19C19.55 20 20 19.5452 20 18.9893V9.43778C20 9.09413 19.82 8.76058 19.53 8.57865Z" fill="#13141A"/>
</svg>
