<svg width="24" height="24" viewBox="0 0 24 24" fill="none" xmlns="http://www.w3.org/2000/svg">
<mask id="mask0_3299_13118" style="mask-type:alpha" maskUnits="userSpaceOnUse" x="0" y="0" width="24" height="24">
<rect width="24" height="24" fill="#D9D9D9"/>
</mask>
<g mask="url(#mask0_3299_13118)">
<path d="M11.5 10.3153C13.0507 10.3153 14.3078 9.05824 14.3078 7.50755C14.3078 5.95685 13.0507 4.69977 11.5 4.69977C9.94934 4.69977 8.69226 5.95685 8.69226 7.50755C8.69226 9.05824 9.94934 10.3153 11.5 10.3153Z" stroke="#232329" stroke-width="1.5" stroke-miterlimit="10"/>
<path d="M5.62241 14.33L5.0515 14.5733C4.70521 14.7231 4.48059 15.06 4.48059 15.4344V18.3638C4.48059 18.8786 4.90176 19.2998 5.41651 19.2998H17.5835C18.0982 19.2998 18.5194 18.8786 18.5194 18.3638V15.4344C18.5194 15.06 18.2948 14.7231 17.9485 14.5733L17.3776 14.33C13.6245 12.7202 9.37546 12.7202 5.62241 14.33Z" stroke="#232329" stroke-width="1.5" stroke-miterlimit="10"/>
</g>
</svg>
