<svg width="24" height="24" viewBox="0 0 24 24" fill="none" xmlns="http://www.w3.org/2000/svg">
<mask id="mask0_3299_13102" style="mask-type:alpha" maskUnits="userSpaceOnUse" x="0" y="0" width="24" height="24">
<rect width="24" height="24" fill="#D9D9D9"/>
</mask>
<g mask="url(#mask0_3299_13102)">
<path d="M9.96376 16.9916C9.51121 16.9916 9.07791 16.8086 8.76015 16.4716L3.69537 11.2045C2.89617 10.3764 2.4725 9.26903 2.50139 8.09428C2.53027 6.91953 3.01172 5.84107 3.85906 5.05148C5.46708 3.53971 8.0765 3.67452 9.68453 5.34998L9.96376 5.63885L10.243 5.34998C11.851 3.68415 14.4604 3.54934 16.0685 5.05148C16.9158 5.84107 17.3973 6.91953 17.4261 8.09428C17.455 9.26903 17.0314 10.3764 16.2322 11.2141L11.1674 16.4812C10.8496 16.8086 10.4259 17.0012 9.96376 17.0012V16.9916ZM6.55514 5.44627C5.92926 5.44627 5.31302 5.66774 4.8412 6.11068C4.28273 6.63065 3.96497 7.35283 3.94572 8.13279C3.92646 8.92238 4.2057 9.65419 4.73528 10.2127L9.80007 15.4798C9.91562 15.5953 10.0119 15.5953 10.1178 15.4798L15.1826 10.2127C15.7122 9.66382 15.9914 8.92238 15.9722 8.13279C15.9529 7.35283 15.6352 6.63065 15.0767 6.11068C14.0464 5.13814 12.3421 5.25369 11.2829 6.35141L10.6185 7.0447C10.4452 7.22766 10.2045 7.32395 9.96376 7.32395C9.71341 7.32395 9.48232 7.21803 9.309 7.0447L8.64461 6.35141C8.06687 5.7544 7.30619 5.44627 6.55514 5.44627Z" fill="#232329"/>
<path d="M20.0355 11.8982C19.1112 11.0315 17.6572 11.1663 16.7714 12.0811L16.3188 12.5529C16.2707 12.6107 16.184 12.6107 16.1358 12.5529L15.6833 12.0811C14.7974 11.1663 13.3435 11.0315 12.4191 11.8982C11.4273 12.8225 11.3984 14.4114 12.3324 15.3839L12.9679 16.0483L15.7699 18.9659C16.0203 19.2355 16.4343 19.2355 16.6943 18.9659L19.4963 16.0483L20.1318 15.3839C21.0658 14.421 21.0273 12.8322 20.0452 11.8982H20.0355Z" fill="white"/>
<path d="M16.2225 19.8807C15.847 19.8807 15.5003 19.7266 15.2404 19.457L11.8029 15.8846C11.2155 15.2683 10.9074 14.4595 10.9266 13.6025C10.9459 12.7455 11.3022 11.9559 11.9184 11.3782C13.1028 10.2708 15.0189 10.3671 16.1936 11.59L16.2129 11.6189L16.2321 11.59C17.4069 10.3671 19.323 10.2708 20.5074 11.3782C21.1236 11.9559 21.4799 12.7455 21.4991 13.6025C21.5184 14.4595 21.2103 15.278 20.6229 15.8846L17.1854 19.457C16.9254 19.7266 16.5788 19.8807 16.2033 19.8807H16.2225ZM13.9116 12.0426C13.5457 12.0426 13.1894 12.1678 12.9102 12.4278C12.5732 12.7359 12.3902 13.1692 12.371 13.641C12.3613 14.1128 12.525 14.5558 12.8428 14.8832L16.2225 18.3978L19.6022 14.8832C19.92 14.5558 20.0837 14.1128 20.0741 13.641C20.0644 13.1692 19.8719 12.7455 19.5348 12.4278C18.9282 11.8596 17.9172 11.927 17.2817 12.5818L16.8291 13.0536C16.5114 13.381 15.924 13.3907 15.5966 13.0536L15.1441 12.5914C14.7974 12.2352 14.3449 12.0522 13.902 12.0522L13.9116 12.0426Z" fill="#232329"/>
</g>
</svg>
