<svg width="24" height="24" viewBox="0 0 24 24" fill="none" xmlns="http://www.w3.org/2000/svg">
<mask id="mask0_3299_13107" style="mask-type:alpha" maskUnits="userSpaceOnUse" x="0" y="0" width="24" height="24">
<rect width="24" height="24" fill="#D9D9D9"/>
</mask>
<g mask="url(#mask0_3299_13107)">
<path d="M15.675 4.64035H8.32502C7.96502 4.64035 7.63502 4.83035 7.45502 5.14035L3.78502 11.5004C3.60502 11.8104 3.60502 12.1903 3.78502 12.5003L7.45502 18.8604C7.63502 19.1704 7.96502 19.3604 8.32502 19.3604H15.675C16.035 19.3604 16.365 19.1704 16.545 18.8604L20.215 12.5003C20.395 12.1903 20.395 11.8104 20.215 11.5004L16.545 5.14035C16.365 4.83035 16.035 4.64035 15.675 4.64035Z" stroke="#232329" stroke-width="1.5" stroke-miterlimit="10"/>
<path d="M12.755 8.40051C12.755 7.98629 12.4192 7.65051 12.005 7.65051C11.5908 7.65051 11.255 7.98629 11.255 8.40051V12.9005C11.255 13.3147 11.5908 13.6505 12.005 13.6505C12.4192 13.6505 12.755 13.3147 12.755 12.9005V8.40051Z" fill="#232329"/>
<path d="M12.0049 16.3503C12.3915 16.3503 12.7049 16.0369 12.7049 15.6503C12.7049 15.2637 12.3915 14.9503 12.0049 14.9503C11.6183 14.9503 11.3049 15.2637 11.3049 15.6503C11.3049 16.0369 11.6183 16.3503 12.0049 16.3503Z" fill="#232329"/>
</g>
</svg>
