<svg width="17" height="20" viewBox="0 0 17 20" fill="none" xmlns="http://www.w3.org/2000/svg">
<path d="M15.4902 6.87288C15.3762 6.96132 13.3637 8.09533 13.3637 10.6169C13.3637 13.5335 15.9246 14.5653 16.0012 14.5908C15.9894 14.6537 15.5944 16.0039 14.651 17.3797C13.8098 18.5903 12.9313 19.799 11.5949 19.799C10.2584 19.799 9.9145 19.0227 8.37169 19.0227C6.86819 19.0227 6.33361 19.8246 5.11116 19.8246C3.8887 19.8246 3.03574 18.7043 2.05502 17.3286C0.919044 15.7131 0.0012207 13.2033 0.0012207 10.8213C0.0012207 7.00063 2.48544 4.97434 4.93035 4.97434C6.22945 4.97434 7.31236 5.82731 8.12799 5.82731C8.9043 5.82731 10.115 4.92324 11.5929 4.92324C12.153 4.92324 14.1656 4.97434 15.4902 6.87288ZM10.8913 3.30575C11.5025 2.58054 11.9349 1.57427 11.9349 0.568011C11.9349 0.42847 11.9231 0.286964 11.8975 0.172974C10.9031 0.210315 9.71993 0.835299 9.0065 1.66271C8.44637 2.29949 7.92359 3.30575 7.92359 4.32577C7.92359 4.47907 7.94914 4.63237 7.96093 4.6815C8.02382 4.6933 8.12602 4.70705 8.22822 4.70705C9.12049 4.70705 10.2427 4.10958 10.8913 3.30575Z" fill="white"/>
</svg>
