<svg width="80" height="16" viewBox="0 0 80 16" fill="none" xmlns="http://www.w3.org/2000/svg">
<!--<g opacity="0.3">-->
<path d="M6.53793 13.6913L5.42561 12.1959C5.09563 12.2614 4.77429 12.2948 4.46161 12.2948C3.64591 12.2948 2.89819 12.1057 2.21845 11.7263C1.5387 11.3468 0.998609 10.8179 0.599413 10.1381C0.200216 9.45838 0 8.69459 0 7.84553C0 6.99646 0.200216 6.23514 0.599413 5.5591C0.998609 4.88306 1.5387 4.35657 2.21845 3.97715C2.89819 3.59772 3.64591 3.40863 4.46161 3.40863C5.27731 3.40863 6.02503 3.59772 6.70477 3.97715C7.38452 4.35657 7.91967 4.88306 8.31145 5.5591C8.70323 6.23514 8.8985 6.99646 8.8985 7.84553C8.8985 8.58707 8.74772 9.26434 8.4474 9.87859C8.14707 10.4928 7.7281 11.0008 7.19295 11.4049L9.09624 13.6913H6.53793ZM2.78696 9.68084C3.20346 10.1381 3.76085 10.3668 4.46161 10.3668C5.16237 10.3668 5.7074 10.1357 6.1239 9.67466C6.5404 9.21367 6.74803 8.60313 6.74803 7.84553C6.74803 7.08792 6.5404 6.46749 6.1239 6.01021C5.7074 5.55292 5.15371 5.32428 4.46161 5.32428C3.7695 5.32428 3.20346 5.55045 2.78696 6.00403C2.37046 6.45761 2.16283 7.07061 2.16283 7.84553C2.16283 8.62044 2.37046 9.22356 2.78696 9.68084Z" fill="white"/>
<path d="M16.4746 5.31192V12.2083H14.3613V11.269C14.1474 11.5742 13.857 11.819 13.4899 12.0043C13.1229 12.1897 12.7175 12.2824 12.2726 12.2824C11.7448 12.2824 11.2801 12.165 10.876 11.9302C10.4719 11.6954 10.1592 11.3555 9.93672 10.9106C9.71426 10.4656 9.60303 9.94285 9.60303 9.34097V5.31192H11.7041V9.05671C11.7041 9.5177 11.8239 9.87611 12.0625 10.1319C12.301 10.3878 12.6223 10.5151 13.0265 10.5151C13.4306 10.5151 13.7643 10.3878 14.0028 10.1319C14.2414 9.87611 14.3613 9.5177 14.3613 9.05671V5.31192H16.4746Z" fill="white"/>
<path d="M17.4448 4.26759C17.2099 4.04884 17.0925 3.77941 17.0925 3.45808C17.0925 3.13674 17.2099 2.85495 17.4448 2.6362C17.6796 2.41744 17.9824 2.30869 18.3532 2.30869C18.7239 2.30869 19.0144 2.41744 19.2492 2.6362C19.484 2.85495 19.6014 3.12809 19.6014 3.45808C19.6014 3.78806 19.484 4.04884 19.2492 4.26759C19.0144 4.48635 18.7153 4.59511 18.3532 4.59511C17.991 4.59511 17.6796 4.48635 17.4448 4.26759ZM19.4037 5.31193V12.2083H17.2903V5.31193H19.4037Z" fill="white"/>
<path d="M20.4973 6.88154C20.7902 6.3464 21.1981 5.93361 21.7209 5.64564C22.2437 5.35767 22.8431 5.21307 23.5191 5.21307C24.3843 5.21307 25.1073 5.43924 25.6881 5.89282C26.269 6.3464 26.6497 6.98412 26.8313 7.80847H24.582C24.3929 7.28074 24.0258 7.01749 23.482 7.01749C23.0952 7.01749 22.7862 7.16827 22.5551 7.4686C22.324 7.76892 22.2091 8.20025 22.2091 8.76012C22.2091 9.31998 22.324 9.75131 22.5551 10.0516C22.7862 10.352 23.0952 10.5027 23.482 10.5027C24.0258 10.5027 24.3929 10.2395 24.582 9.71176H26.8313C26.6497 10.5188 26.2665 11.1541 25.682 11.6151C25.0974 12.076 24.3756 12.3072 23.5191 12.3072C22.8431 12.3072 22.2437 12.1626 21.7209 11.8746C21.1981 11.5866 20.7902 11.1738 20.4973 10.6387C20.2044 10.1035 20.0586 9.47694 20.0586 8.76012C20.0586 8.04329 20.2044 7.41669 20.4973 6.88154Z" fill="white"/>
<path d="M31.6761 12.2083L29.5751 9.31627V12.2083H27.4617V3.06259H29.5751V8.11744L31.6637 5.31194H34.2715L31.4042 8.77247L34.2962 12.2083H31.6761Z" fill="white"/>
<path d="M40.5871 10.6757H37.349L36.8299 12.2083H34.6177L37.7569 3.53223H40.204L43.3432 12.2083H41.1062L40.5871 10.6757ZM40.0433 9.04436L38.9681 5.86808L37.9052 9.04436H40.0433Z" fill="white"/>
<path d="M46.7913 5.56528C47.1621 5.34652 47.5736 5.23776 48.0272 5.23776V7.47475H47.4463C46.9186 7.47475 46.5231 7.58845 46.2599 7.81462C45.9966 8.04079 45.8644 8.43875 45.8644 9.00727V12.2083H43.751V5.31192H45.8644V6.46131C46.1116 6.08188 46.4205 5.78403 46.7913 5.56528Z" fill="white"/>
<path d="M48.8491 6.88154C49.1421 6.3464 49.5499 5.93361 50.0727 5.64564C50.5955 5.35767 51.1949 5.21307 51.8709 5.21307C52.7361 5.21307 53.4591 5.43924 54.0399 5.89282C54.6208 6.3464 55.0015 6.98412 55.1831 7.80847H52.9338C52.7435 7.28074 52.3776 7.01749 51.8338 7.01749C51.447 7.01749 51.138 7.16827 50.9069 7.4686C50.6758 7.76892 50.5609 8.20025 50.5609 8.76012C50.5609 9.31998 50.6758 9.75131 50.9069 10.0516C51.138 10.352 51.447 10.5027 51.8338 10.5027C52.3776 10.5027 52.7447 10.2395 52.9338 9.71176H55.1831C55.0015 10.5188 54.6183 11.1541 54.0338 11.6151C53.4492 12.076 52.7274 12.3072 51.8709 12.3072C51.1949 12.3072 50.5955 12.1626 50.0727 11.8746C49.5499 11.5866 49.1421 11.1738 48.8491 10.6387C48.5562 10.1035 48.4104 9.47694 48.4104 8.76012C48.4104 8.04329 48.5562 7.41669 48.8491 6.88154Z" fill="white"/>
<path d="M61.9559 6.02258C62.4342 6.54537 62.6727 7.26467 62.6727 8.17923V12.2083H60.5717V8.46349C60.5717 8.0025 60.4518 7.64409 60.2133 7.38826C59.9748 7.13242 59.6534 7.00513 59.2493 7.00513C58.8451 7.00513 58.5238 7.13242 58.2853 7.38826C58.0468 7.64409 57.9269 8.0025 57.9269 8.46349V12.2083H55.8135V3.06259H57.9269V6.23886C58.1407 5.9336 58.4336 5.69136 58.8044 5.50968C59.1751 5.328 59.5916 5.23778 60.0526 5.23778C60.8436 5.23778 61.4776 5.49979 61.9559 6.02258Z" fill="white"/>
<path d="M63.5688 4.26759C63.334 4.04884 63.2166 3.77941 63.2166 3.45808C63.2166 3.13674 63.334 2.85495 63.5688 2.6362C63.8036 2.41744 64.1064 2.30869 64.4772 2.30869C64.8479 2.30869 65.1384 2.41744 65.3732 2.6362C65.608 2.85495 65.7254 3.12809 65.7254 3.45808C65.7254 3.78806 65.608 4.04884 65.3732 4.26759C65.1384 4.48635 64.8393 4.59511 64.4772 4.59511C64.1151 4.59511 63.8036 4.48635 63.5688 4.26759ZM65.5277 5.31193V12.2083H63.4143V5.31193H65.5277Z" fill="white"/>
<path d="M69.6307 10.2308L71.1261 5.31192H73.3755L70.9284 12.2083H68.3206L65.8735 5.31192H68.1352L69.6307 10.2308Z" fill="white"/>
<path d="M79.9628 9.26684H75.1799C75.2133 9.6957 75.3505 10.0232 75.5939 10.2494C75.8362 10.4756 76.1353 10.5893 76.49 10.5893C77.0177 10.5893 77.3835 10.3668 77.5899 9.92187H79.8392C79.7243 10.3754 79.5154 10.7833 79.2151 11.1454C78.9148 11.5075 78.5378 11.7918 78.0843 11.9982C77.6307 12.2046 77.124 12.3072 76.5641 12.3072C75.8881 12.3072 75.2874 12.1626 74.7597 11.8746C74.232 11.5866 73.8204 11.1738 73.5238 10.6387C73.2272 10.1035 73.0789 9.47694 73.0789 8.76012C73.0789 8.04329 73.2247 7.41669 73.5176 6.88154C73.8105 6.3464 74.2196 5.93361 74.7473 5.64564C75.2751 5.35767 75.8807 5.21307 76.5641 5.21307C77.2476 5.21307 77.8247 5.35273 78.3438 5.63328C78.8629 5.91383 79.2683 6.31303 79.5612 6.83211C79.8541 7.35119 79.9999 7.95678 79.9999 8.64889C79.9999 8.84663 79.9876 9.05303 79.9628 9.26684ZM77.8371 8.09273C77.8371 7.73061 77.7135 7.44141 77.4663 7.2276C77.2191 7.01379 76.9102 6.90626 76.5394 6.90626C76.1686 6.90626 75.8868 7.00884 75.6434 7.21524C75.3999 7.42163 75.2503 7.71331 75.1923 8.09273H77.8371Z" fill="white"/>
<!--</g>-->
</svg>
