<svg width="20" height="20" viewBox="0 0 20 20" fill="none" xmlns="http://www.w3.org/2000/svg">
<mask id="mask0_2702_84" style="mask-type:luminance" maskUnits="userSpaceOnUse" x="0" y="0" width="20" height="20">
<path d="M19.2791 8.46508H10.2209V12.2209H15.4349C14.9488 14.6069 12.9163 15.9767 10.2209 15.9767C7.03954 15.9767 4.47674 13.4139 4.47674 10.2325C4.47674 7.05113 7.03954 4.48834 10.2209 4.48834C11.5907 4.48834 12.8279 4.97439 13.8 5.76973L16.6279 2.94183C14.9047 1.4395 12.6953 0.511597 10.2209 0.511597C4.83023 0.511597 0.5 4.84183 0.5 10.2325C0.5 15.6232 4.83023 19.9535 10.2209 19.9535C15.0814 19.9535 19.5 16.4186 19.5 10.2325C19.5 9.6581 19.4116 9.0395 19.2791 8.46508Z" fill="white"/>
</mask>
<g mask="url(#mask0_2702_84)">
<path d="M-0.383789 15.9767V4.48834L7.12784 10.2325L-0.383789 15.9767Z" fill="#FBBC05"/>
</g>
<mask id="mask1_2702_84" style="mask-type:luminance" maskUnits="userSpaceOnUse" x="0" y="0" width="20" height="20">
<path d="M19.2791 8.46508H10.2209V12.2209H15.4349C14.9488 14.6069 12.9163 15.9767 10.2209 15.9767C7.03954 15.9767 4.47674 13.4139 4.47674 10.2325C4.47674 7.05113 7.03954 4.48834 10.2209 4.48834C11.5907 4.48834 12.8279 4.97439 13.8 5.76973L16.6279 2.94183C14.9047 1.4395 12.6953 0.511597 10.2209 0.511597C4.83023 0.511597 0.5 4.84183 0.5 10.2325C0.5 15.6232 4.83023 19.9535 10.2209 19.9535C15.0814 19.9535 19.5 16.4186 19.5 10.2325C19.5 9.6581 19.4116 9.0395 19.2791 8.46508Z" fill="white"/>
</mask>
<g mask="url(#mask1_2702_84)">
<path d="M-0.383789 4.48835L7.12784 10.2325L10.2209 7.53718L20.8255 5.81393V-0.372116H-0.383789V4.48835Z" fill="#EA4335"/>
</g>
<mask id="mask2_2702_84" style="mask-type:luminance" maskUnits="userSpaceOnUse" x="0" y="0" width="20" height="20">
<path d="M19.2791 8.46508H10.2209V12.2209H15.4349C14.9488 14.6069 12.9163 15.9767 10.2209 15.9767C7.03954 15.9767 4.47674 13.4139 4.47674 10.2325C4.47674 7.05113 7.03954 4.48834 10.2209 4.48834C11.5907 4.48834 12.8279 4.97439 13.8 5.76973L16.6279 2.94183C14.9047 1.4395 12.6953 0.511597 10.2209 0.511597C4.83023 0.511597 0.5 4.84183 0.5 10.2325C0.5 15.6232 4.83023 19.9535 10.2209 19.9535C15.0814 19.9535 19.5 16.4186 19.5 10.2325C19.5 9.6581 19.4116 9.0395 19.2791 8.46508Z" fill="white"/>
</mask>
<g mask="url(#mask2_2702_84)">
<path d="M-0.383789 15.9767L12.872 5.81393L16.3627 6.25579L20.8255 -0.372116V20.8372H-0.383789V15.9767Z" fill="#34A853"/>
</g>
<mask id="mask3_2702_84" style="mask-type:luminance" maskUnits="userSpaceOnUse" x="0" y="0" width="20" height="20">
<path d="M19.2791 8.46508H10.2209V12.2209H15.4349C14.9488 14.6069 12.9163 15.9767 10.2209 15.9767C7.03954 15.9767 4.47674 13.4139 4.47674 10.2325C4.47674 7.05113 7.03954 4.48834 10.2209 4.48834C11.5907 4.48834 12.8279 4.97439 13.8 5.76973L16.6279 2.94183C14.9047 1.4395 12.6953 0.511597 10.2209 0.511597C4.83023 0.511597 0.5 4.84183 0.5 10.2325C0.5 15.6232 4.83023 19.9535 10.2209 19.9535C15.0814 19.9535 19.5 16.4186 19.5 10.2325C19.5 9.6581 19.4116 9.0395 19.2791 8.46508Z" fill="white"/>
</mask>
<g mask="url(#mask3_2702_84)">
<path d="M20.8255 20.8372L7.12779 10.2325L5.36035 8.90695L20.8255 4.48834V20.8372Z" fill="#4285F4"/>
</g>
</svg>
